<svg xmlns="http://www.w3.org/2000/svg" width="24" height="24" viewBox="0 0 24 24"><defs><style>.a{fill:#fff;fill-rule:evenodd;}</style></defs><path class="a" d="M11.975,2.128a36.722,36.722,0,0,1,4.79.133,6.171,6.171,0,0,1,2.262.4,4.673,4.673,0,0,1,2.262,2.262,6.171,6.171,0,0,1,.4,2.262c0,1.2.133,1.6.133,4.79a36.723,36.723,0,0,1-.133,4.79,6.171,6.171,0,0,1-.4,2.262,4.673,4.673,0,0,1-2.262,2.262,6.171,6.171,0,0,1-2.262.4c-1.2,0-1.6.133-4.79.133a36.722,36.722,0,0,1-4.79-.133,6.171,6.171,0,0,1-2.262-.4A4.673,4.673,0,0,1,2.66,19.027a6.171,6.171,0,0,1-.4-2.262c0-1.2-.133-1.6-.133-4.79a36.722,36.722,0,0,1,.133-4.79,6.171,6.171,0,0,1,.4-2.262,4.779,4.779,0,0,1,.932-1.33,2.249,2.249,0,0,1,1.33-.931,6.171,6.171,0,0,1,2.262-.4,36.723,36.723,0,0,1,4.79-.134m0-2.129A39.318,39.318,0,0,0,7.052.133,8.215,8.215,0,0,0,4.124.666,5.209,5.209,0,0,0,2,2,5.209,5.209,0,0,0,.666,4.124,6.062,6.062,0,0,0,.133,7.052,39.317,39.317,0,0,0,0,11.975,39.318,39.318,0,0,0,.133,16.9a8.215,8.215,0,0,0,.532,2.927A5.209,5.209,0,0,0,2,21.954a5.209,5.209,0,0,0,2.129,1.33,8.214,8.214,0,0,0,2.927.532,39.317,39.317,0,0,0,4.924.134,39.317,39.317,0,0,0,4.923-.133,8.214,8.214,0,0,0,2.927-.532,5.582,5.582,0,0,0,3.46-3.46,8.214,8.214,0,0,0,.532-2.927c0-1.331.134-1.73.134-4.924a39.318,39.318,0,0,0-.133-4.923,8.214,8.214,0,0,0-.532-2.927A5.209,5.209,0,0,0,21.954,2,5.209,5.209,0,0,0,19.825.666,8.215,8.215,0,0,0,16.9.133,39.318,39.318,0,0,0,11.975,0m0,5.855a6.022,6.022,0,0,0-6.12,6.12,6.12,6.12,0,1,0,6.12-6.12m0,10.112a3.921,3.921,0,0,1-3.992-3.992,3.921,3.921,0,0,1,3.992-3.992,3.921,3.921,0,0,1,3.992,3.992,3.921,3.921,0,0,1-3.992,3.992M18.362,4.124a1.464,1.464,0,1,0,1.464,1.464,1.464,1.464,0,0,0-1.464-1.464" transform="translate(0.025 0.025)"/></svg>