<svg xmlns="http://www.w3.org/2000/svg" width="24" height="24" viewBox="0 0 24 24"><defs><style>.a{fill:none;}.b{fill:#fff;fill-rule:evenodd;}</style></defs><rect class="a" width="24" height="24"/><path class="b" d="M45.252,20.576A13.24,13.24,0,0,0,58.611,7.216V6.58A10.342,10.342,0,0,0,60.9,4.163a10.562,10.562,0,0,1-2.672.763,4.95,4.95,0,0,0,2.036-2.545,11.67,11.67,0,0,1-2.926,1.145A4.544,4.544,0,0,0,53.9,2a4.78,4.78,0,0,0-4.7,4.708,2.48,2.48,0,0,0,.127,1.018,13.154,13.154,0,0,1-9.669-4.962,4.872,4.872,0,0,0-.636,2.417,5.055,5.055,0,0,0,2.036,3.944,4.289,4.289,0,0,1-2.163-.636h0a4.65,4.65,0,0,0,3.817,4.58,3.922,3.922,0,0,1-1.272.127,2.165,2.165,0,0,1-.891-.127A4.82,4.82,0,0,0,45,16.377a9.606,9.606,0,0,1-5.853,2.036A3.523,3.523,0,0,1,38,18.285a12.009,12.009,0,0,0,7.252,2.29" transform="translate(-37.192 0.808)"/></svg>