<svg xmlns="http://www.w3.org/2000/svg" width="24" height="24" viewBox="0 0 24 24"><defs><style>.a{fill:#fff;}</style></defs><path class="a" d="M3.6,3.6A10.89,10.89,0,0,1,12,0a10.89,10.89,0,0,1,8.4,3.6,10.89,10.89,0,0,1,3.6,8.4,10.89,10.89,0,0,1-3.6,8.4,10.89,10.89,0,0,1-8.4,3.6,10.89,10.89,0,0,1-8.4-3.6A11.972,11.972,0,0,1,0,12,10.89,10.89,0,0,1,3.6,3.6Zm10,17.994q1.2,0,3-1.8a8.732,8.732,0,0,0,1.4-4.2,3.311,3.311,0,0,0-1-2.4,3.52,3.52,0,0,0-2.6-1.2h-2a5.838,5.838,0,0,1-1.8-.4,1.815,1.815,0,0,1-.6-1.4,1.039,1.039,0,0,1,.4-.8,1.515,1.515,0,0,1,.8-.4,1.365,1.365,0,0,1,1,.6c.4.2.6.4.8.4a1.2,1.2,0,0,0,.8-.2A1.2,1.2,0,0,0,14,9a3.182,3.182,0,0,0-1-2,8.269,8.269,0,0,0,1-3.8.43.43,0,0,0-.4-.4A6.181,6.181,0,0,0,12,2.4,10,10,0,0,0,6.8,4,5.033,5.033,0,0,0,5,8a5.119,5.119,0,0,0,1.6,3.8,5.462,5.462,0,0,0,3.8,1.6h0v.8a2.567,2.567,0,0,0,.8,2,2.911,2.911,0,0,0,1.8,1.2v3.6c0,.2,0,.2.2.4S13.4,21.592,13.6,21.592Z" transform="translate(0.004 0.004)"/></svg>